<?xml version="1.0" encoding="UTF-8"?>
<svg width="47px" height="31px" viewBox="0 0 47 31" version="1.1" xmlns="http://www.w3.org/2000/svg" xmlns:xlink="http://www.w3.org/1999/xlink">
    <!-- Generator: Sketch 54.1 (76490) - https://sketchapp.com -->
    <title>Page 1</title>
    <desc>Created with Sketch.</desc>
    <defs>
        <polygon id="path-1" points="0 0.0586307946 46.7872758 0.0586307946 46.7872758 30.9308036 0 30.9308036"></polygon>
    </defs>
    <g id="Page-1" stroke="none" stroke-width="1" fill="none" fill-rule="evenodd">
        <g id="Ride_home2" transform="translate(-14.000000, -13.000000)">
            <g id="Group-6">
                <g id="New-logo-menu">
                    <g id="Page-1" transform="translate(14.000000, 13.000000)">
                        <g id="Group-3" transform="translate(0.000000, 0.010587)">
                            <mask id="mask-2" fill="white">
                                <use xlink:href="#path-1"></use>
                            </mask>
                            <g id="Clip-2"></g>
                            <path d="M42.1595282,8.72862433 C41.2974121,7.95327835 41.9731377,7.10769799 42.0783726,6.17804397 C42.1728369,5.34159754 42.0258923,4.49650156 41.7907947,3.69645246 C41.411771,2.40635424 40.2884201,1.68415112 39.0175757,1.52320022 C38.3880876,1.44341674 37.5815388,1.70207299 36.9940348,1.55565335 C36.4465256,1.41926719 36.2513541,0.893858705 35.8432433,0.526840848 C35.4131799,0.140102009 34.8024887,0.0178319196 34.2314491,0.0700752232 C32.982077,0.18424933 31.6835863,1.29173817 30.4187103,0.902369866 C29.4520454,0.604825223 28.620114,0.122041741 27.5719504,0.203139955 C26.5189847,0.284791741 25.476858,0.738235937 24.6226311,1.28571808 C23.9270111,1.73155067 23.2158871,1.82489665 22.4614755,1.47455513 C19.858457,0.265901116 16.7802354,1.36716228 14.9561879,3.52539888 C14.8098607,3.69852835 14.6542723,3.87504844 14.4708317,4.00147031 C14.1076549,4.25175379 13.6996813,4.12429397 13.5008739,3.72696808 C13.0175757,2.76133192 12.1735018,2.31632969 11.1902354,2.10977835 C10.7380137,2.01477165 10.2772855,1.9576154 9.81545963,1.94848147 C6.01774459,1.87333415 3.38550185,5.05899933 1.92504274,8.29794576 C0.930868602,10.5026824 -0.025437467,13.4247783 0.000493931398,16.1428833 C0.0147630607,17.628323 0.322303958,19.0528699 1.07747018,20.26616 C2.02506385,21.7885507 3.59261003,23.1154614 5.47785013,22.7579234 C5.73291082,22.7095551 5.99325383,22.6854056 6.2522934,22.6658922 C6.60490554,22.6392516 6.97542269,22.9158989 7.06192929,23.262227 C7.72743325,25.9259435 8.68229868,29.4838855 11.4629266,30.602515 C12.4483198,30.9989413 13.5547261,31.0484859 14.5569266,30.6846511 C15.378019,30.3865529 15.9449425,29.3987739 16.6739715,29.1852337 C16.9107156,29.1158297 17.1620718,29.1289078 17.4073224,29.1048967 C18.0120454,29.0455261 18.5321826,28.7497114 18.9621087,28.3245685 C19.2299979,28.0596846 19.340515,27.7485775 19.7023884,27.6128141 C20.1655863,27.4389926 20.7585784,27.6762672 21.2435916,27.6022962 C21.8461879,27.5104725 22.5898976,27.3222583 23.1068106,26.9791132 C23.5692538,26.6720886 23.8415335,26.0852337 24.4636127,26.0636444 C25.9829319,26.0109167 27.3580507,26.5395775 28.9275177,26.2571868 C30.520515,25.970506 31.3650691,25.1947449 32.5540718,24.2209435 C33.4511747,23.4862158 34.7006839,23.8585618 35.6080084,23.1232114 C36.4688211,22.4255038 36.6982934,21.4942583 37.9780559,21.6631667 C38.8008633,21.7717359 39.4952485,22.27341 40.2833435,22.4976065 C44.3320718,23.649381 47.4822565,19.8327136 46.3573963,15.9245685 C46.2100401,15.4127225 45.8443251,15.1236199 45.9922987,14.5764145 C46.0973963,14.1878766 46.5195704,13.9362092 46.6540296,13.5532761 C46.8856971,12.8932114 46.8269741,12.1003587 46.3854544,11.5430507 C45.1336813,9.96315781 43.5780032,10.0043989 42.1595282,8.72862433" id="Fill-1" fill="#FFFFFF" mask="url(#mask-2)"></path>
                        </g>
                        <path d="M17.8976797,8.67183482 C18.4361335,8.6450558 18.8991256,8.46597545 19.2852153,8.15050893 C19.4823077,7.98948884 19.6651995,7.6706317 19.5777325,7.42394643 C19.341743,6.75841518 18.3765187,7.28562277 17.9957799,7.5349375 C17.5936375,7.79822991 16.8776427,8.72248661 17.8976797,8.67183482 M19.7782549,4.41694643 C21.1172892,4.3788192 22.4143393,4.90837946 22.6073156,6.48813393 C22.8319172,8.32585268 21.8847351,9.58135268 20.502962,10.5325268 C19.8094686,11.0099129 19.0445609,11.3711875 18.2535161,11.6506027 C17.7741968,11.8199263 17.208028,11.8174353 16.7644501,12.0821808 C16.160962,12.4423482 16.2154317,13.0954933 16.0171045,13.7000625 C15.8563024,14.1901808 15.7006454,14.6903326 15.4641071,15.1443996 C15.2442391,15.5664978 14.9592681,15.9703281 14.6345768,16.3172098 C14.0996902,16.8887723 13.2794211,16.9510491 12.6222865,16.562442 C11.2561546,15.7545045 11.8916797,13.846067 12.3584449,12.6886183 C13.0104343,11.0718437 13.7613472,9.4686317 14.5421018,7.91254241 C15.3463182,6.30967634 16.8475266,5.04995536 18.596524,4.5898683 C18.975342,4.49022545 19.3787193,4.42829464 19.7782549,4.41694643" id="Fill-10" fill="#000000"></path>
                        <path d="M23.623991,11.2545431 C23.5876322,10.570398 23.7189356,9.80467031 23.87521,9.24189576 C24.1820649,8.13703638 24.4656639,7.02567254 24.7637377,5.9183221 C25.02559,4.94590469 25.6691414,4.11070379 26.5940966,3.7037596 C27.6160544,3.2541904 29.7588248,3.05379754 30.0397483,4.5620029 C30.1254317,5.02215915 29.9580438,5.50625737 29.5660544,5.76477522 C29.2843077,5.95063683 28.9801282,6.06854754 28.6330042,6.05104085 C28.4394106,6.04121496 28.24321,6.03720156 28.0509884,6.05740692 C27.7872839,6.08508549 27.6352628,6.22603862 27.6179066,6.42131094 C27.5971889,6.65526406 27.7019435,6.78542254 27.9961071,6.86915022 C28.2228354,6.93371049 28.4540227,6.98207879 28.6813683,7.04477076 C29.1790728,7.18205647 29.2088459,7.78102076 29.046466,8.18844933 C28.8255003,8.74292031 28.2455425,8.9970096 27.6846559,9.02711004 C27.4990887,9.03707433 27.245057,9.05776406 27.0808934,9.16107433 C26.8181493,9.3263154 26.9311361,9.64309665 27.2491045,9.66565469 C27.6629778,9.69492478 28.1261071,9.49134888 28.5459488,9.62635112 C28.9313525,9.75035112 29.1855214,10.1242886 29.2343657,10.5182931 C29.3258116,11.2564114 28.7306243,11.8467953 28.0828195,12.0185408 C27.2368248,12.2428065 26.4073631,12.5299025 25.5669937,12.7766569 C24.1470095,13.1935654 23.6807931,12.3238355 23.623991,11.2545431" id="Fill-12" fill="#000000"></path>
                        <path d="M12.4391478,21.6888663 C12.4425092,21.5708864 12.4290633,21.4543596 12.397781,21.3474511 C12.3189578,21.0783462 12.0410528,20.9980092 11.806847,21.1356408 C11.4162296,21.3652346 11.503628,21.9861342 11.6725937,22.3252658 C11.7914802,22.5637167 12.0175224,22.6016364 12.1873113,22.3997904 C12.3439288,22.2135136 12.4318074,21.9475917 12.4391478,21.6888663 M15.1416385,21.7921074 C15.1091214,22.1032837 14.9973694,22.3390359 14.8200343,22.5889042 C14.4172058,23.1566609 15.2634749,23.5887234 15.6444881,23.8304958 C16.297438,24.2449132 16.4079551,25.0793529 15.9304195,25.6952011 C15.5365778,26.2030337 14.9297968,26.2577681 14.3712427,26.0085225 C13.7786623,25.744123 13.5139288,25.2772547 13.0813958,24.8438083 C12.9166834,24.6787748 12.6255383,24.5957391 12.6793905,24.9561833 C12.7782454,25.6179779 12.9922823,26.2666252 12.9772586,26.9430203 C12.9659393,27.4506453 12.794504,27.9680962 12.2631161,28.1119556 C11.8535646,28.2228775 11.4724828,28.1327837 11.2204406,27.7805047 C10.7920923,27.1818172 10.6243615,26.4657725 10.4188311,25.770902 C9.83839314,23.8086989 8.58833509,20.9698462 10.4723404,19.3173663 C11.299058,18.5922569 12.5120026,18.3706208 13.5198971,18.827594 C14.5975594,19.31619 15.2641609,20.6207502 15.1416385,21.7921074" id="Fill-14" fill="#000000"></path>
                        <path d="M31.2586338,9.07003259 C31.2200797,8.37786071 31.3915836,7.66838973 31.5723488,7.01240759 C31.8289873,6.08109286 32.1501799,5.1716442 32.5046443,4.27395893 C32.7081852,3.75823795 32.9604332,3.11740982 33.5405282,2.94206607 C34.0992881,2.77308839 34.6125652,3.102325 34.9360902,3.54469777 C35.2159847,3.92742321 35.3268449,4.38820223 35.4037472,4.84925804 C35.4759847,5.28249688 35.473172,6.11492991 36.1089029,6.07901696 C36.658676,6.04780938 36.8023277,5.28962411 36.9013198,4.86586518 C37.049362,4.23264866 37.3502485,3.71312188 38.1001325,3.80466875 C38.6512776,3.87192768 39.0987657,4.35574911 39.1397208,4.92087634 C39.1704544,5.34518884 39.0532828,5.7412692 38.9228026,6.13485848 C38.7567182,6.63590982 38.5724544,7.13114866 38.4203646,7.63635179 C38.2292406,8.27129821 37.9338422,8.85434732 37.5743013,9.40203705 C36.9858369,10.2983384 35.732143,10.4625415 34.9299161,9.75881384 C34.6419266,9.50617768 34.5260586,9.15334509 34.4417472,8.79068661 C34.4183541,8.68986741 34.4106021,8.58531161 34.386866,8.48456161 C34.3141483,8.17642991 34.0450243,8.0933942 33.8318106,8.32651696 C33.7448237,8.42166205 33.6959794,8.55977813 33.6523488,8.68633839 C33.4415361,9.29803482 33.3566074,10.2141263 32.6963858,10.52295 C31.927705,10.8825638 31.4317842,10.1440996 31.3059689,9.46895 C31.2814095,9.33692321 31.2661113,9.20378929 31.2586338,9.07003259" id="Fill-16" fill="#000000"></path>
                        <path d="M42.133542,20.2773283 C40.8965868,20.2340114 39.0153942,19.3772212 38.3504391,18.2725002 C38.0955156,17.8488797 38.0624496,17.1664645 38.5209826,16.8613775 C38.703943,16.7396609 38.9368454,16.7126743 39.1534892,16.746373 C39.7586923,16.8405493 40.3110723,17.1708931 40.8736053,17.4217993 C41.0960116,17.521027 41.4030723,17.6153417 41.6474997,17.5709176 C41.9404285,17.5176364 42.0143124,17.2172547 41.8853414,16.9803261 C41.7264602,16.6885248 41.3656844,16.5566364 41.0939536,16.4036431 C40.3641699,15.9928239 39.5860908,15.7561029 38.990629,15.1334734 C38.2937741,14.4049734 37.8524602,13.3382413 38.149848,12.3302569 C38.4584865,11.2840069 39.5644813,10.8540895 40.5655156,10.8769935 C41.5142069,10.8987212 42.4542544,11.2168864 43.2239641,11.7766855 C43.5857003,12.0398395 43.9372834,12.4196587 43.9058639,12.8683975 C43.8725921,13.3443306 43.394096,13.6912815 42.9225288,13.7294087 C42.5939958,13.7559801 42.281104,13.6609042 41.9805604,13.5365583 C41.7092412,13.4242525 41.4364813,13.1927212 41.1281858,13.2048306 C40.5332042,13.2282882 40.462133,13.7244266 40.911885,14.1964154 C41.366096,14.6731096 41.9263652,14.9590984 42.4934259,15.2169243 C44.4867821,16.12319 45.1885077,18.330902 43.7311356,19.7012681 C43.2635472,20.140873 42.7099325,20.2974645 42.133542,20.2773283" id="Fill-18" fill="#000000"></path>
                        <path d="M26.5834702,17.0122533 C26.5724939,16.9160703 26.5521193,16.8245234 26.5202195,16.7436328 C26.375333,16.3765458 26.0881668,16.8769743 26.0334913,17.0276842 C25.9451325,17.2715324 25.7328792,17.7861462 25.9805995,18.00024 C26.229486,18.2151641 26.4711008,17.8999743 26.5329794,17.6713493 C26.5842934,17.4821663 26.6089214,17.2348583 26.5834702,17.0122533 M26.6277182,21.3718359 C26.6841773,22.1139676 26.2089741,23.1282489 25.2783251,23.0774587 C24.2136971,23.0193337 23.7239504,22.284606 23.6497921,21.2324051 C23.6078765,20.638423 23.6171377,20.0366217 23.6569953,19.4418092 C23.7155124,18.5679275 23.8527842,17.7025569 24.1433805,16.8714386 C24.4729425,15.9287065 24.9832697,15.1135725 25.9266786,14.7028225 C26.9585836,14.2535993 27.9139979,14.7761708 28.301048,15.8074743 C28.6476918,16.7311083 28.7913435,17.7088538 29.1836074,18.6165725 C29.5495282,19.46326 30.034267,20.3608761 30.1458132,21.2906685 C30.2668264,22.2989989 29.2582459,23.118077 28.4221298,22.3160904 C27.8705731,21.7869453 27.6921404,20.9366596 27.4057288,20.2552824 C27.3133224,20.0354453 27.20061,19.7474498 26.9229108,19.7939498 C26.6317657,19.8426641 26.6064517,20.1637355 26.5849794,20.4089676 C26.5604887,20.688452 26.6014438,21.0273069 26.6277182,21.3718359" id="Fill-20" fill="#000000"></path>
                        <path d="M33.3651003,16.0685594 C33.3659235,16.4662312 33.4406306,16.9279098 33.6777177,16.9654835 C33.7348628,16.9745482 33.8273377,16.8843853 33.8553958,16.8037714 C33.9866992,16.4261665 33.9850528,15.994104 33.8879129,15.59145 C33.7728681,15.1146866 33.5106042,15.1676219 33.4092797,15.5772647 C33.3832111,15.6825125 33.3646887,15.8673362 33.3651003,16.0685594 M30.8656016,14.2749187 C30.9363984,13.8395348 31.1151741,13.4680192 31.4819868,13.2488049 C32.495438,12.6430594 33.6513747,12.3782446 34.7697177,12.8831018 C36.4557388,13.6443317 37.0361082,15.5730437 36.4617071,17.2468362 C36.0675224,18.3952201 35.3742348,19.3888808 34.4928417,20.2105884 C34.012905,20.6580125 33.1486623,21.5390906 32.4134591,21.2515795 C31.9476544,21.0694545 31.8230053,20.4689679 31.7061768,20.0395348 C31.4264881,19.0118295 31.2271319,17.9617737 31.090409,16.9053518 C31.0025303,16.2261196 30.7268206,15.1279031 30.8656016,14.2749187" id="Fill-22" fill="#000000"></path>
                        <path d="M19.5766005,19.8256556 C19.5757087,19.8206734 19.5747483,19.8156913 19.5738565,19.8107783 C19.5317351,19.5865819 19.5305003,19.3547047 19.5702206,19.1300931 C19.6241414,18.8254212 19.7527694,18.5193654 19.6862259,18.2172538 C19.6594026,18.0953297 19.5894976,17.9708453 19.4717087,17.9323721 C19.3600939,17.8959056 19.2342786,17.9493252 19.155524,18.0369279 C19.0767694,18.1245998 19.0369119,18.240573 19.0080992,18.3552315 C18.9476612,18.5954815 18.920495,20.5670261 19.509028,20.1937114 C19.6209172,20.122785 19.6010227,19.9590663 19.5766005,19.8256556 M16.9473763,18.7960819 C16.9493657,18.6566511 16.9573235,18.5168051 16.9719356,18.3764748 C17.0987113,17.1593096 17.7517298,15.8168297 18.9165847,15.2823565 C20.0842522,14.7465685 21.4822153,15.335015 21.7934607,16.6159792 C22.0648485,17.7330172 21.7201256,18.7845261 21.5311968,19.880044 C21.3703261,20.8130886 21.8293393,21.6883542 21.7139515,22.6420886 C21.6096084,23.5044145 21.1254871,24.207727 20.2326375,24.3425217 C18.7432971,24.5674792 18.0393077,23.0341556 17.6234449,21.8857025 C17.2644528,20.8943944 16.9320781,19.8637136 16.9473763,18.7960819" id="Fill-24" fill="#000000"></path>
                        <path d="M7.60884169,11.8070558 C7.44392348,12.1971853 7.30267282,12.702942 6.95698945,12.9218795 C6.68045646,13.0969464 6.39795515,12.977375 6.32503166,12.6032991 C6.23845646,12.1587813 6.44769129,11.6559308 6.60938522,11.2655938 C6.78795515,10.8345692 7.01735884,10.4306696 7.29787071,10.0835112 C7.4706095,9.8695558 7.80840369,9.66120536 8.04871504,9.82658482 C8.63937467,10.2332522 7.78501055,11.3902165 7.60884169,11.8070558 M11.2421873,5.44603571 C7.82034037,3.39270089 4.96095778,8.45628795 3.98070976,10.9800201 C3.23919525,12.8892188 2.3401715,15.2957321 2.97796042,17.3593772 C3.32556464,18.4841652 4.31068338,19.2980536 5.44123747,19.533183 C6.86375989,19.829067 8.46485224,19.0483929 8.82233509,17.6077232 C8.99925858,16.8945848 9.17041953,16.1775714 9.29253034,15.4535 C9.52968602,14.0474286 9.86178628,12.6819754 10.6794485,11.484808 C10.7894169,11.3239263 10.8863509,11.1539799 10.9878813,10.9872165 C11.694752,9.82582366 12.5661293,8.03758036 12.1513641,6.6340692 C11.98919,6.08513393 11.6611372,5.69749554 11.2421873,5.44603571" id="Fill-26" fill="#000000"></path>
                    </g>
                </g>
            </g>
        </g>
    </g>
</svg>